<?xml version="1.0" encoding="utf-8"?>
<!-- Generator: Adobe Illustrator 19.0.0, SVG Export Plug-In . SVG Version: 6.00 Build 0)  -->
<svg version="1.1" xmlns="http://www.w3.org/2000/svg" xmlns:xlink="http://www.w3.org/1999/xlink" x="0px" y="0px"
	 viewBox="0 0 434.4 222.5" style="enable-background:new 0 0 434.4 222.5;" xml:space="preserve">
<style type="text/css">
	.st0{fill:#170100;}
	.st1{fill:#FFFFFF;}
</style>
<g id="Capa_2">
	<rect id="XMLID_40_" class="st0" width="434.4" height="222.5"/>
</g>
<g id="Capa_1">
	<path id="XMLID_77_" class="st1" d="M112.4,107.7c-0.7-4.6-1.1-9-1.1-13.1c0-2.3,0-4.4,0.1-6.4c0.1-2,0.2-3.7,0.4-5.2
		c0.2-1.5,0.4-2.7,0.5-3.6c0.1-0.9,0.3-1.9,0.6-3c0.2-1.2,0.4-1.8,0.4-1.9c0.1-0.6,0.1-1.1,0.1-1.5c0-1.4-0.4-2.3-1.2-2.8
		c-0.5-0.4-1-0.6-1.6-0.6c-0.8,0-1.5,0.8-2.2,2.3c-1.8,2.4-4,6.4-6.5,12c-2.5,5.6-4.8,11.2-6.9,16.8c-1.5-4.8-3.6-9.9-6.2-15.2
		c-2.6-5.3-5-9.3-7.4-11.8c-1.4-2.1-3.2-3.2-5.4-3.2c-1.9,0-3.9,1.4-6,4.3c-2.1,2.8-3.8,5.6-5,8.4c-1.2,2.7-1.8,4.3-1.8,4.8
		c0,0.8,0.1,1.3,0.3,1.3l1.9-3.9c1.2-2.6,2.7-5.2,4.5-7.7c1.8-2.6,3.2-3.9,4.4-3.9c3.5,0,5.3,5.3,5.3,15.8v0.8
		c0,3.7-0.7,7.7-2.2,12.2c-1.5,4.5-3.2,8.4-5.1,11.8c-1.9,3.4-3.8,6.2-5.7,8.5c-1.9,2.3-3.3,3.5-4.2,3.5c-0.6,0-0.9,0.4-0.9,1.1
		c0,0.5,0.5,1.1,1.4,1.7c1,0.6,2.1,0.9,3.3,0.9c0.8,0,2.2-1.2,4.2-3.7c1.9-2.5,3.9-5.5,6-9.1c2.1-3.6,3.9-7.9,5.5-12.8
		c1.6-4.9,2.3-9.5,2.3-13.7v-2.6v-1.6c2.5,5.3,4.8,12.2,7.1,20.8c0,0.6,0.3,1.2,0.9,1.8c0.6,0.5,1.1,0.8,1.4,0.8
		c0.5,0,1.1-0.2,1.7-0.5c0.6-0.3,1-0.9,1.1-1.6c0-1.5,1.1-5.5,3.4-12c2.3-6.5,4.5-11.4,6.8-14.7c-0.3,3.6-0.5,7.7-0.5,12.5
		c0,2.1,0.2,5.5,0.6,10.1c0.4,4.7,1.1,9.6,2.2,14.9c1.1,5.3,2.4,7.9,4,7.9c1.6,0,2.5-0.9,2.5-2.8c0-0.2-0.3-1.7-1-4.7
		C113.8,116.2,113.1,112.4,112.4,107.7z"/>
	<path id="XMLID_91_" class="st1" d="M173.1,81.6c0-0.6-0.6-1.1-1.7-1.4c-1.1-0.4-2.1-0.6-2.8-0.6c-0.7,0-1,1.8-1,5.3
		c0,1.1,1.6,1.6,4.7,1.6c0.6,0,1-0.9,1-2.7c0-0.3,0-0.7,0-1.2C173.1,82.1,173.1,81.8,173.1,81.6z"/>
	<path id="XMLID_111_" class="st1" d="M215.6,100.8c-0.4-0.1-0.6,0-0.6,0.3c0,0.2-0.5,1.5-1.6,3.8c-1.1,2.3-2.4,4.6-4.1,7
		c-1.7,2.4-3.1,3.6-4.3,3.6c-0.8,0-1.2-1.3-1.2-3.9c0-0.8,0.1-3.4,0.3-7.7c0.2-4.3,0.3-8.1,0.3-11.5c0-0.9-0.5-1.8-1.5-2.6
		c-1-0.9-1.9-1.3-2.6-1.3c-0.8,0-1.3,0.4-1.3,1.3c0,2.5,0,4.3-0.1,5.4c-1-1.1-2.4-2.2-4-3.1c-1.6-0.9-3.2-1.4-4.8-1.4h-0.6
		c-2.4,0.2-4.3,1.8-5.8,4.9c-1.4,3.1-2.1,6.6-2.1,10.6c0,0,0,0.1,0,0.1c-0.9,1.8-2.1,3.7-3.5,5.6c-1.7,2.2-3.2,3.4-4.7,3.5h-0.2
		c-0.7,0-1-1.1-1-3.4c0-0.7,0.1-3.2,0.3-7.3c0.2-4.1,0.3-7.9,0.3-11.3c0-0.9-0.5-1.8-1.5-2.6c-1-0.8-1.8-1.3-2.6-1.3
		c-0.8,0-1.3,0.4-1.3,1.3c0,2.8-0.1,6.3-0.2,10.6c-0.1,1.6-0.1,3-0.1,4.1l-0.3,0.6c-1.2,2.2-2.6,4.5-4.2,6.7
		c-1.6,2.2-2.7,3.3-3.4,3.3c-0.3,0-0.5-0.4-0.5-1.1c0-0.7,0-1.6,0.2-2.7c0.2-1.1,0.3-2.2,0.5-3.4c0.2-1.2,0.4-2.3,0.6-3.4
		c0.2-1.1,0.3-1.9,0.3-2.4c0-0.8-0.4-1.5-1.2-1.9c-0.8-0.4-1.7-0.7-2.7-0.8c-1-0.1-1.8-0.3-2.6-0.6c-0.8-0.3-1.2-0.8-1.2-1.5
		c0-0.9,0.2-2,0.4-3c0.3-1.1,0.4-1.8,0.4-2.1c0-0.5-0.4-1.1-1.2-1.7c-0.8-0.6-1.6-0.9-2.4-0.9c-0.4,0-1,1-1.6,2.9
		c-0.6,1.9-1,3.3-1,4.1c0,1.4,0.4,2.5,1.2,3.3c0.6,0.7,1.3,1.1,2.1,1.4c-0.3,0.6-0.6,1.4-1.1,2.5c-1.1,2.3-2.4,4.6-4.1,7
		c-1.7,2.4-3.1,3.6-4.3,3.6c-0.8,0-1.2-1.3-1.2-3.9c0-0.8,0.1-3.4,0.3-7.7c0.2-4.3,0.3-8.1,0.3-11.5c0-0.9-0.5-1.8-1.5-2.6
		c-1-0.9-1.9-1.3-2.6-1.3c-0.8,0-1.3,0.4-1.3,1.3c0,2.5,0,4.3-0.1,5.4c-1-1.1-2.4-2.2-4-3.1c-1.6-0.9-3.2-1.4-4.8-1.4h-0.6
		c-2.4,0.2-4.3,1.8-5.8,4.9c-1.4,3.1-2.1,6.6-2.1,10.6c0,3.7,0.7,6.9,2,9.6c1.3,2.7,3.2,4,5.5,4h0.5c1.4-0.1,3-1.2,4.6-3.2
		c1.6-2,3.1-4.3,4.3-6.9c0.1,3.5,0.5,6,1.2,7.6c0.7,1.6,2,2.5,3.9,2.5c1.1,0,2.4-0.6,3.6-1.8c1.3-1.2,2.4-2.7,3.4-4.4
		c1-1.7,1.9-3.4,2.8-5.2c0.8-1.8,1.5-3.2,1.9-4.5c0.2-0.5,0.3-0.8,0.4-1.2c0.6,0.2,1.2,0.3,1.8,0.5c0.8,0.3,1.2,0.7,1.2,1.1
		c0,0.2-0.2,1.1-0.5,2.5c-0.3,1.4-0.6,2.8-0.9,4.3c-0.2,1.5-0.3,3-0.3,4.5c0,1.5,0.4,2.8,1.2,3.7c0.8,1,2,1.5,3.5,1.5
		c1,0,2.1-0.6,3.3-1.9c1.2-1.2,2.2-2.6,3.1-4.1c0.9-1.5,1.8-3.3,2.7-5.2c0,0,0,0,0,0c0,0,0,0.1,0,0.1c0,3.6,0.4,6.1,1,7.8
		c0.7,1.6,2,2.4,4,2.4c1.8,0,3.8-1.4,5.8-4.2c1.5-2.1,2.8-4.2,3.9-6.2c0.3,2.4,0.9,4.5,1.8,6.4c1.3,2.7,3.2,4,5.5,4h0.5
		c1.4-0.1,3-1.2,4.6-3.2c1.6-2,3.1-4.3,4.3-6.9c0.1,3.5,0.5,6,1.2,7.6c0.7,1.6,2,2.5,3.9,2.5c1.1,0,2.4-0.6,3.6-1.8
		c1.3-1.2,2.4-2.7,3.4-4.4c1-1.7,1.9-3.4,2.8-5.2c0.8-1.8,1.5-3.2,1.9-4.5c0.4-1.2,0.7-1.9,0.7-2C216.2,101.4,216,101,215.6,100.8z
		 M134.8,105.7c-0.7,2.1-1.9,4.4-3.6,6.8c-1.7,2.4-3.3,3.6-4.9,3.8h-0.1c-1,0-1.8-0.9-2.3-2.8c-0.5-1.9-0.8-4.1-0.8-6.8
		c0-3.3,0.4-6.3,1.2-9c0.8-2.7,1.9-4.1,3.3-4.2h0.4c1.6,0,3.1,0.5,4.5,1.5c1.4,1,2.3,1.9,2.6,2.8
		C134.9,100.8,134.9,103.4,134.8,105.7z M198.7,105.7c-0.7,2.1-1.9,4.4-3.6,6.8c-1.7,2.4-3.3,3.6-4.9,3.8h-0.1c-1,0-1.8-0.9-2.3-2.8
		c-0.6-1.9-0.8-4.1-0.8-6.8c0-3.3,0.4-6.3,1.2-9c0.8-2.7,1.9-4.1,3.3-4.2h0.4c1.6,0,3.1,0.5,4.5,1.5c1.4,1,2.3,1.9,2.6,2.8
		C198.8,100.8,198.7,103.4,198.7,105.7z"/>
	<path id="XMLID_115_" class="st1" d="M369.2,100c-2.1,0-4.4,0.5-6.8,1.5c-0.7-2.8-2-5-3.7-6.8c-1.7-1.8-3.8-2.6-6.3-2.6
		c-2.1,0-4,1.2-5.5,3.5c-1.5,2.4-2.8,5.3-3.7,8.8c-0.1-5-0.5-8.4-0.9-10.1c-0.5-1.7-1.3-2.5-2.6-2.5c-0.4,0-0.8,0.1-1.1,0.4
		c-0.3,0.2-0.5,0.7-0.5,1.3c0,3.6,0,7.6,0,12.1l-0.4,0.7c-1.2,2.2-2.6,4.5-4.2,6.7c-1.6,2.2-2.7,3.3-3.4,3.3c-0.3,0-0.5-0.4-0.5-1.1
		c0-0.7,0-1.6,0.2-2.7c0.2-1.1,0.3-2.2,0.5-3.4c0.2-1.2,0.4-2.3,0.6-3.4c0.2-1.1,0.3-1.9,0.3-2.4c0-0.8-0.4-1.5-1.2-1.9
		c-0.8-0.4-1.7-0.7-2.7-0.8c-1-0.1-1.8-0.3-2.6-0.6c-0.8-0.3-1.2-0.8-1.2-1.5c0-0.9,0.2-2,0.4-3c0.3-1.1,0.4-1.8,0.4-2.1
		c0-0.5-0.4-1.1-1.2-1.7c-0.8-0.6-1.6-0.9-2.4-0.9c-0.4,0-1,1-1.6,2.9c-0.6,1.9-1,3.3-1,4.1c0,1.4,0.4,2.5,1.2,3.3
		c0.6,0.7,1.3,1.1,2.1,1.4c-0.3,0.6-0.6,1.4-1.1,2.5c-1.1,2.3-2.4,4.6-4.1,7c-1.7,2.4-3.1,3.6-4.3,3.6c-0.8,0-1.2-1.3-1.2-3.9
		c0-0.8,0.1-3.4,0.3-7.7c0.2-4.3,0.3-8.1,0.3-11.5c0-0.9-0.5-1.8-1.5-2.6c-1-0.9-1.9-1.3-2.6-1.3c-0.8,0-1.3,0.4-1.3,1.3
		c0,2.5,0,4.3-0.1,5.4c-1-1.1-2.4-2.2-4-3.1c-1.6-0.9-3.2-1.4-4.8-1.4h-0.6c-2.4,0.2-4.3,1.8-5.8,4.9c-1.4,3-2.1,6.4-2.1,10.3
		c-0.4,1.2-0.9,2.6-1.5,4.3c-1.7,4.7-3.1,7-4.3,7c-0.8,0-1.2-4.9-1.2-14.7c0-0.9,0-1.8,0-2.8c0-0.9,0-1.7,0-2.3c0-0.6,0-1,0-1.1
		c0-1.3-0.5-2.5-1.4-3.3c-0.9-0.9-2-1.3-3.2-1.3c-0.9,0-1.9,0.7-3,2.1c-1.1,1.4-2.2,3.1-3.2,5.3c-1,2.1-2,4.2-2.8,6.2
		c-0.8,2-1.5,3.9-2.1,5.6c0.1-14.6,0.2-22.7,0.2-24.5c0-3.7,0-6.4-0.1-8.3c-0.1-1.3-0.2-2.4-0.3-3.3c1.1,0,2.2,0,3.4,0
		c1.1,0,1.7-0.6,1.7-1.9c0-0.7-0.4-1.4-1.1-2.1c-0.7-0.6-1.6-1-2.6-1c-19.2,0-35.7,1.1-49.3,3.4c-1.3,0.1-1.9,0.7-1.9,1.7
		c0,0.8,0.3,1.5,1,2.1c0.7,0.6,1.4,0.9,2.1,0.9l2.5-0.4c1.7-0.3,4.6-0.7,8.5-1.1c3.9-0.4,8.3-0.7,13.2-1
		c-0.6,22.9-0.9,37.6-0.9,44.3c0,1,0.4,2,1.3,2.9c0.8,0.9,1.6,1.4,2.2,1.4c0.4,0,0.8-0.3,1.1-0.9c0.3-0.6,0.4-1.3,0.4-2
		c0-0.4,0.1-7.6,0.3-21.7c0.2-14.1,0.3-21.6,0.3-22.4c0-0.7-0.2-1.3-0.6-1.9c4-0.2,8.4-0.3,13.4-0.4c0,6.9-0.1,14-0.3,21.5
		c-0.2,8.1-0.3,12.8-0.3,14c0,4.1,0.3,6.7,0.8,7.9c0.5,1.1,1.7,1.7,3.6,1.7c0.9,0,1.4-0.6,1.4-1.9v-1.5c1-3.5,2.8-8,5.4-13.6
		c2.6-5.6,4.5-8.4,5.8-8.4c0.2,0,0.3,0.6,0.3,1.7c0,0.6-0.1,2.4-0.2,5.4c-0.2,2.9-0.2,5.3-0.2,7.1c0,8.8,1.5,13.2,4.5,13.2
		c1.8,0,3.9-2.8,6.2-8.5c0.5-1.1,0.9-2.2,1.2-3.1c0.3,2,0.8,3.9,1.6,5.5c1.3,2.7,3.2,4,5.5,4h0.5c1.4-0.1,3-1.2,4.6-3.2
		c1.6-2,3.1-4.3,4.3-6.9c0.1,3.5,0.5,6,1.2,7.6c0.7,1.6,2,2.5,3.9,2.5c1.1,0,2.4-0.6,3.6-1.8c1.3-1.2,2.4-2.7,3.4-4.4
		c1-1.7,1.9-3.4,2.8-5.2c0.8-1.8,1.5-3.2,1.9-4.5c0.2-0.5,0.3-0.8,0.4-1.2c0.6,0.2,1.2,0.3,1.8,0.5c0.8,0.3,1.2,0.7,1.2,1.1
		c0,0.2-0.2,1.1-0.5,2.5c-0.3,1.4-0.6,2.8-0.9,4.3c-0.2,1.5-0.3,3-0.3,4.5c0,1.5,0.4,2.8,1.2,3.7c0.8,1,2,1.5,3.5,1.5
		c1,0,2.1-0.6,3.3-1.9c1.2-1.2,2.2-2.6,3.1-4.1c0.9-1.5,1.8-3.3,2.7-5.2c0.1-0.1,0.1-0.2,0.1-0.3c0,2.4,0,5-0.1,7.7
		c-0.2,10.6,0,17.1,0.3,19.7s1.5,3.9,3.5,3.9c1,0,1.6-0.9,1.6-2.7c0-3.6,0-8.2,0-13.7c0-5.6,0-9.3,0-11.4c0.1-1.7,0.4-3.5,0.8-5.2
		c0.4-1.7,0.9-3.6,1.6-5.6c0.7-2,1.7-3.7,2.9-4.9c1.2-1.2,2.6-1.9,4.2-1.9c1.4,0,2.6,0.8,3.6,2.3c1,1.6,1.6,3.5,1.9,5.8
		c-3.2,1.8-5.9,3.9-8.1,6.4c-2.2,2.5-3.4,4.5-3.4,6.2c0,1.2,0.6,2.2,1.7,2.8c1.1,0.6,2.5,0.9,4,0.9c2.7,0,5-0.9,6.7-2.6
		c1.8-1.8,2.9-3.9,3.5-6.4c0.5-2.5,0.6-5.1,0.1-7.8c2.2-1,4.3-1.5,6.3-1.5c0.4,0,0.7-0.2,0.8-0.7C370,100.2,369.8,100,369.2,100z
		 M305.4,105.7c-0.7,2.1-1.9,4.4-3.6,6.8c-1.7,2.4-3.3,3.6-4.9,3.8h-0.2c-1,0-1.8-0.9-2.3-2.8c-0.5-1.9-0.8-4.1-0.8-6.8
		c0-3.3,0.4-6.3,1.2-9c0.8-2.7,1.9-4.1,3.3-4.2h0.4c1.6,0,3.1,0.5,4.5,1.5c1.4,1,2.3,1.9,2.6,2.8
		C305.6,100.8,305.5,103.4,305.4,105.7z M356.7,113c-1.2,2.1-3,3.2-5.4,3.2c-0.6,0-1-0.2-1-0.7c0-1,0.8-2.6,2.3-4.6
		c1.6-2,3.5-3.8,5.7-5.5C358.4,108.4,357.9,110.9,356.7,113z"/>
	<path id="XMLID_117_" class="st1" d="M104.5,141.8c0.3,0.1,0.5,0.2,0.8,0.3c0.3,0.1,0.6,0.2,0.9,0.3v6.1H99v-6.1
		c0.3-0.1,0.6-0.1,0.9-0.2c0.3-0.1,0.6-0.2,0.8-0.3v-0.7h-5.9v0.7c0.5,0.3,1.2,0.5,1.9,0.6v13.7c-0.6,0.1-1.3,0.3-1.9,0.6v0.7h5.9
		v-0.7c-0.3-0.1-0.5-0.2-0.8-0.3c-0.3-0.1-0.6-0.2-0.9-0.2v-6.5h7.3v6.5c-0.6,0.1-1.2,0.3-1.7,0.6v0.7h5.9v-0.7
		c-0.3-0.1-0.6-0.2-0.9-0.3c-0.3-0.1-0.7-0.2-1-0.2v-13.7c0.3-0.1,0.7-0.1,1-0.2c0.3-0.1,0.6-0.2,0.9-0.4v-0.7h-5.9V141.8z"/>
	<path id="XMLID_120_" class="st1" d="M133.2,156.1l-5.9-15.3h-0.7l-5.9,15.3c-0.6,0.1-1.1,0.3-1.7,0.6v0.7h5.1v-0.7
		c-0.7-0.3-1.3-0.5-2-0.6l1.5-4.2h5.5l1.6,4.2c-0.3,0.1-0.6,0.1-0.9,0.2c-0.3,0.1-0.6,0.2-1,0.3v0.7h6v-0.7
		c-0.3-0.2-0.5-0.3-0.8-0.3C133.8,156.3,133.5,156.2,133.2,156.1z M124.3,150.7l1.8-4.9l0.6-2h0l0.4,2l1.8,4.9H124.3z"/>
	<path id="XMLID_123_" class="st1" d="M154.1,142c-0.6-0.4-1.2-0.7-1.9-0.8c-0.7-0.2-1.5-0.2-2.2-0.2c-0.7,0-1.4,0-2.1,0.1
		c-0.7,0.1-1.4,0.1-2,0.1h-2.1v0.7c0.3,0.1,0.6,0.2,0.9,0.3c0.3,0.1,0.6,0.2,1,0.2v13.7c-0.3,0.1-0.6,0.1-0.9,0.2
		c-0.3,0.1-0.6,0.2-1,0.3v0.7h6.4v-0.7c-0.3-0.1-0.7-0.2-1-0.3c-0.4-0.1-0.8-0.2-1.2-0.2V151c0.1,0,0.2,0,0.4,0c0.2,0,0.3,0,0.5,0
		c0.2,0,0.4,0,0.5,0c0.2,0,0.3,0,0.4,0c0.8,0,1.6-0.1,2.3-0.3c0.8-0.2,1.4-0.5,2-0.9c0.6-0.4,1.1-1,1.4-1.6s0.5-1.4,0.5-2.3
		c0-1-0.2-1.8-0.5-2.4C155.1,142.9,154.7,142.4,154.1,142z M153.2,147.7c-0.2,0.5-0.5,0.9-0.9,1.2c-0.4,0.3-0.8,0.6-1.3,0.7
		c-0.5,0.1-1,0.2-1.5,0.2c-0.1,0-0.2,0-0.4,0c-0.2,0-0.3,0-0.5,0c-0.2,0-0.3,0-0.5,0c-0.1,0-0.3,0-0.3-0.1v-7.5
		c0.2,0,0.4-0.1,0.7-0.1c0.2,0,0.5,0,0.9,0c1.3,0,2.3,0.3,3,0.9c0.7,0.6,1.1,1.6,1.1,2.9C153.5,146.6,153.4,147.2,153.2,147.7z"/>
	<path id="XMLID_126_" class="st1" d="M176,142c-0.6-0.4-1.2-0.7-1.9-0.8c-0.7-0.2-1.5-0.2-2.2-0.2c-0.7,0-1.4,0-2.1,0.1
		c-0.7,0.1-1.4,0.1-2,0.1h-2.1v0.7c0.3,0.1,0.6,0.2,0.9,0.3c0.3,0.1,0.6,0.2,1,0.2v13.7c-0.3,0.1-0.6,0.1-0.9,0.2
		c-0.3,0.1-0.6,0.2-1,0.3v0.7h6.4v-0.7c-0.3-0.1-0.7-0.2-1-0.3c-0.4-0.1-0.8-0.2-1.2-0.2V151c0.1,0,0.2,0,0.4,0c0.2,0,0.3,0,0.5,0
		c0.2,0,0.4,0,0.5,0s0.3,0,0.4,0c0.8,0,1.6-0.1,2.3-0.3c0.8-0.2,1.4-0.5,2-0.9c0.6-0.4,1.1-1,1.4-1.6s0.5-1.4,0.5-2.3
		c0-1-0.2-1.8-0.5-2.4C177.1,142.9,176.6,142.4,176,142z M175.1,147.7c-0.2,0.5-0.5,0.9-0.9,1.2c-0.4,0.3-0.8,0.6-1.3,0.7
		c-0.5,0.1-1,0.2-1.5,0.2c-0.1,0-0.2,0-0.4,0c-0.2,0-0.3,0-0.5,0c-0.2,0-0.3,0-0.5,0c-0.1,0-0.3,0-0.3-0.1v-7.5
		c0.2,0,0.4-0.1,0.7-0.1c0.2,0,0.5,0,0.9,0c1.3,0,2.3,0.3,3,0.9c0.7,0.6,1.1,1.6,1.1,2.9C175.5,146.6,175.3,147.2,175.1,147.7z"/>
	<path id="XMLID_127_" class="st1" d="M196.1,141.8c0.3,0.1,0.6,0.2,0.9,0.3c0.3,0.1,0.7,0.2,1,0.3l-3.6,6.8l-3.8-6.8
		c0.4-0.1,0.7-0.2,1-0.3c0.3-0.1,0.6-0.2,0.8-0.3v-0.7h-6.1v0.7c0.3,0.1,0.6,0.2,0.9,0.3c0.3,0.1,0.6,0.2,1,0.2l4.7,8.1v5.7
		c-0.7,0.1-1.3,0.3-1.9,0.6v0.7h5.9v-0.7c-0.6-0.3-1.2-0.5-1.8-0.6v-5.7l4.4-8.1c0.6-0.1,1.2-0.3,1.8-0.6v-0.7h-5.1V141.8z"/>
	<path id="XMLID_128_" class="st1" d="M233.3,141.8c0.3,0.1,0.5,0.2,0.8,0.3c0.3,0.1,0.6,0.2,0.9,0.3v6.1h-7.3v-6.1
		c0.3-0.1,0.6-0.1,0.9-0.2c0.3-0.1,0.6-0.2,0.8-0.3v-0.7h-5.9v0.7c0.5,0.3,1.2,0.5,1.9,0.6v13.7c-0.6,0.1-1.3,0.3-1.9,0.6v0.7h5.9
		v-0.7c-0.3-0.1-0.5-0.2-0.8-0.3c-0.3-0.1-0.6-0.2-0.9-0.2v-6.5h7.3v6.5c-0.6,0.1-1.2,0.3-1.7,0.6v0.7h5.9v-0.7
		c-0.3-0.1-0.6-0.2-0.9-0.3c-0.3-0.1-0.7-0.2-1-0.2v-13.7c0.3-0.1,0.7-0.1,1-0.2c0.3-0.1,0.6-0.2,0.9-0.4v-0.7h-5.9V141.8z"/>
	<path id="XMLID_131_" class="st1" d="M262,143.2c-0.6-0.7-1.4-1.3-2.3-1.7c-0.9-0.4-1.9-0.6-3.1-0.6s-2.2,0.2-3.1,0.6
		c-0.9,0.4-1.7,1-2.3,1.7c-0.6,0.7-1.1,1.6-1.4,2.7c-0.3,1-0.5,2.1-0.5,3.3c0,1.2,0.2,2.3,0.5,3.3c0.3,1,0.8,1.9,1.4,2.7
		c0.6,0.7,1.4,1.3,2.3,1.7c0.9,0.4,1.9,0.6,3.1,0.6s2.2-0.2,3.1-0.6c0.9-0.4,1.7-1,2.3-1.7c0.6-0.7,1.1-1.6,1.4-2.7
		c0.3-1,0.5-2.1,0.5-3.3c0-1.2-0.2-2.3-0.5-3.3C263.1,144.9,262.6,144,262,143.2z M261.2,152c-0.2,0.9-0.5,1.6-0.9,2.3
		c-0.4,0.6-0.9,1.2-1.4,1.5c-0.6,0.4-1.3,0.6-2.1,0.6c-0.9,0-1.6-0.2-2.2-0.6c-0.6-0.4-1.2-0.9-1.6-1.5c-0.4-0.6-0.7-1.4-0.9-2.3
		c-0.2-0.9-0.3-1.8-0.3-2.8s0.1-1.9,0.3-2.8c0.2-0.9,0.4-1.6,0.8-2.3c0.4-0.6,0.9-1.2,1.4-1.5c0.6-0.4,1.3-0.6,2.2-0.6
		c0.9,0,1.6,0.2,2.2,0.6c0.6,0.4,1.2,0.9,1.6,1.5c0.4,0.6,0.7,1.4,0.9,2.3c0.2,0.9,0.3,1.8,0.3,2.8S261.3,151.2,261.2,152z"/>
	<path id="XMLID_135_" class="st1" d="M284.3,151.7l-0.8,2.4h0l-0.8-2.4l-4-10.6h-4.8v0.7c0.3,0.1,0.6,0.2,0.9,0.3
		c0.3,0.1,0.6,0.2,1,0.2v13.7c-0.3,0.1-0.6,0.1-1,0.2c-0.3,0.1-0.6,0.2-0.9,0.3v0.7h4.8v-0.7c-0.3-0.1-0.6-0.2-0.9-0.3
		c-0.3-0.1-0.6-0.2-0.9-0.2v-10.4l0-2.9h0.2l0.8,2.7l4.5,11.9h0.6l4.8-11.9l0.8-2.5h0.2l-0.1,2.7v10.4c-0.3,0.1-0.6,0.2-1,0.2
		c-0.3,0.1-0.6,0.2-0.9,0.3v0.7h5.7v-0.7c-0.3-0.1-0.5-0.2-0.8-0.3c-0.3-0.1-0.6-0.2-0.9-0.2v-13.8c0.3-0.1,0.6-0.1,0.9-0.2
		c0.3-0.1,0.6-0.2,0.9-0.3v-0.7h-4.1L284.3,151.7z"/>
	<path id="XMLID_136_" class="st1" d="M313.3,153.4h-0.6l-1.1,2.8h-5.3v-6.5h3.8l0.9,1.8h0.6c0.1-1.6,0.1-3.2,0-4.7h-0.6l-0.9,1.7
		h-3.8v-6.1h5.1l1,2.6h0.6c0.1-0.6,0.1-1.3,0.2-1.9c0-0.6,0.1-1.2,0.1-1.9h-11v0.7c0.3,0.1,0.6,0.2,1,0.3c0.3,0.1,0.6,0.2,0.9,0.2
		v13.7c-0.7,0.1-1.4,0.3-1.9,0.6v0.7h11.4c0-0.7,0-1.4,0-2C313.5,154.7,313.4,154,313.3,153.4z"/>
	<path id="XMLID_137_" class="st1" d="M332.3,149.4c-0.6-0.4-1.2-0.8-1.9-1.1c-0.7-0.3-1.3-0.6-1.9-1s-1.1-0.7-1.4-1.2
		c-0.4-0.4-0.6-1-0.6-1.6c0-0.8,0.2-1.4,0.7-1.8c0.5-0.4,1.1-0.7,1.9-0.7c0.5,0,0.9,0,1.4,0.1c0.4,0.1,0.8,0.2,1.1,0.3l0.9,3.2h0.6
		c0.1-0.3,0.1-0.6,0.2-0.9c0.1-0.3,0.1-0.7,0.2-1.1c0.1-0.4,0.1-0.7,0.1-1.1c0-0.3,0.1-0.7,0.1-0.9c-0.4-0.2-1.1-0.4-1.8-0.5
		c-0.8-0.1-1.6-0.2-2.6-0.2c-0.7,0-1.4,0.1-2,0.3c-0.6,0.2-1.1,0.5-1.5,0.8c-0.4,0.4-0.8,0.8-1,1.3c-0.2,0.5-0.3,1.1-0.3,1.7
		c0,0.9,0.2,1.6,0.6,2.2c0.4,0.6,0.8,1.1,1.4,1.5c0.6,0.4,1.2,0.8,1.8,1.1c0.7,0.3,1.3,0.6,1.8,1c0.6,0.3,1,0.7,1.4,1.1
		c0.4,0.4,0.6,0.9,0.6,1.6c0,0.5-0.1,0.9-0.3,1.2c-0.2,0.4-0.4,0.7-0.8,0.9c-0.3,0.3-0.7,0.4-1.1,0.6c-0.4,0.1-0.9,0.2-1.4,0.2
		c-0.6,0-1-0.1-1.3-0.2c-0.3-0.1-0.5-0.3-0.7-0.5l-1-3.4H325c-0.1,0.3-0.1,0.6-0.2,1c-0.1,0.4-0.1,0.8-0.2,1.1
		c-0.1,0.4-0.1,0.8-0.1,1.1c0,0.4-0.1,0.7-0.1,1c0.3,0.3,0.9,0.5,1.6,0.7c0.8,0.2,1.6,0.3,2.6,0.3c0.9,0,1.7-0.1,2.4-0.3
		c0.7-0.2,1.3-0.5,1.8-0.9c0.5-0.4,0.8-0.9,1.1-1.5c0.3-0.6,0.4-1.2,0.4-1.9c0-0.8-0.2-1.6-0.6-2.1
		C333.3,150.3,332.9,149.8,332.3,149.4z"/>
</g>
</svg>
