<?xml version="1.0" encoding="utf-8"?>
<!-- Generator: Adobe Illustrator 19.0.0, SVG Export Plug-In . SVG Version: 6.00 Build 0)  -->
<svg version="1.1" xmlns="http://www.w3.org/2000/svg" xmlns:xlink="http://www.w3.org/1999/xlink" x="0px" y="0px"
	 viewBox="0 0 434.4 370.2" style="enable-background:new 0 0 434.4 370.2;" xml:space="preserve">
<style type="text/css">
	.st0{fill:#170100;}
	.st1{fill:#FFFFFF;}
</style>
<g id="Capa_2">
	<rect id="XMLID_40_" class="st0" width="434.4" height="370.2"/>
</g>
<g id="Capa_1">
	<path id="XMLID_140_" class="st1" d="M138.1,166.9v75.5c-1.8,0.3-3.6,0.8-5.3,1.3c-1.7,0.6-3.4,1.2-5,1.9v3.7h26.7v-3.7
		c-1.6-0.7-3.2-1.3-4.8-1.8c-1.6-0.5-3.2-0.9-4.8-1.3v-57.4l-0.1-16.2h1.1l4.6,14.9l22.8,65.5h3.3l26.2-65.5l3-7.9v87.8v9.5v9.9v8.9
		v12c-3,0.6-6,1.6-8.9,2.9v3.9h34.7v-3.9c-1.5-0.7-3.3-1.4-5.2-1.9c-1-0.3-2-0.5-3-0.8v-8.8c0.4,0.7,1.1,1.1,1.9,1.1h2.7
		c1.2,0,2.2-1,2.2-2.2V290h9.2v-9.5h-8c0.8-1,1.2-2.1,1.2-3.3c0-1.5-0.6-2.8-1.7-3.9h8.5v-9.5h-9.2v-3.2c0-1.2-1-2.2-2.2-2.2h-2.7
		c-0.8,0-1.5,0.5-1.9,1.1v-92.8h8.2h19.5v75.9c-2.2,0.3-4.3,0.8-6.2,1.3c-1.9,0.5-3.8,1.1-5.7,1.8v3.7h35.9v-3.7
		c-1.8-0.8-3.6-1.4-5.6-1.8c-1.9-0.4-4-0.8-6.2-1.3v-75.9h19.4l6.7,18.2h3.4c0.3-1.8,0.4-3.8,0.6-5.9c0.1-2.2,0.3-4.4,0.4-6.6
		c0.1-2.3,0.2-4.4,0.3-6.6c0.1-2.1,0.1-4,0.1-5.7h-65.8h-4.2c0.8-1.1,1.2-2.5,1.2-3.9c0-2.4-1.2-4.5-3-5.7c6.8,3.2,11.2,6,16.9,7.6
		c17.3,4.7,32.8-8.3,32.6-25.4c-0.1-7.1-0.2-13.3,0-20.5c0.4-15.9-6.4-21.9-22.9-24.3c-2.3-16.4-9.9-24.5-23.5-23
		c-7.5,0.9-14.4,1.2-22,0.1c-13.3-2-20.2,5.5-23.9,23.1c-14.1,1.7-24.8,7.5-24.6,18.7c0.2,10.5-0.4,21,0,31.4
		c0.5,13.6,18.4,23.3,33,20c6.2-1.4,12-4.9,17.9-7.5c-1.7,1.3-2.9,3.3-2.9,5.6c0,2,0.9,3.9,2.3,5.1l-22.5,56.9l-4.3,13.4h-0.1
		l-4.3-13.1L153.8,160h-26.2v3.7c1.7,0.7,3.4,1.3,5.2,1.9C134.5,166.1,136.3,166.6,138.1,166.9z M179.1,132.6
		c1.3,1.7,3.2,3.2,5.4,3.4c1.1,0.1,2.2-0.1,3.3-0.5c2.9-1.1,5.2-3.8,5.9-6.8c0.7-3.1-0.3-6.4-2.5-8.7c2.4-2.1,6.2-1.9,8.8-0.2
		c2.6,1.8,4.2,4.8,4.7,7.9c1.4,7.3-2.3,15.2-8.4,19.4c-6.2,4.2-16.5,4.9-23.5,2.3c-3.3-1.2-6.5-3.3-8-6.5c-1.9-4.1-0.6-8.9,1.6-12.8
		c1.8-3.1,4.3-6.5,3.3-10c-0.8-2.9-3.7-4.6-5.4-7c-5.8-8.2,4.9-16.8,13.2-16.9c4.6-0.1,9,1.6,13.2,3.1c-1.2-3.8-2.4-7.6-2.6-11.6
		c-0.2-4,0.6-8.1,3.1-11.2c2.5-3.1,6.8-4.8,10.6-3.5c4.7,1.6,7.8,7.5,12.8,7.2c4.4-0.3,6.9-5.2,10.9-7c3.6-1.6,8.2-0.3,10.9,2.6
		c2.8,2.9,3.9,7,3.8,11c-0.1,4-1.4,7.9-2.8,11.6c5.4-1.3,11.1-2.6,16.5-1.1c5.4,1.5,10.1,6.9,8.7,12.4c-1.2,4.8-6.6,8.1-6.3,13
		c0.3,4.5,5.3,7.3,6.8,11.5c1.1,2.9,0.4,6.3-1.4,8.9c-1.8,2.6-4.5,4.4-7.3,5.7c-6.1,2.7-13.4,2.8-19.4-0.1
		c-6-2.8-10.6-8.7-11.6-15.3c-0.6-4.3,0.4-9,3.7-11.8c3-2.6,7.5-3.2,11.4-2.4c-2.5,4.1-4.9,9.3-2.6,13.5c1.6,3,5.4,4.4,8.8,3.7
		c3.3-0.8,6-3.5,7.2-6.7c1.1-3.2,0.8-6.8-0.4-10c-2-5-6.4-9-11.6-10.5c-5.2-1.5-11-0.4-15.3,2.8c-6.2,4.6-8.7,12.6-10.8,20.1
		c-0.2-7.6-3.7-15.4-9.9-19.8c-6.3-4.4-15.3-4.9-21.5-0.3C176.4,116.8,174.5,126.5,179.1,132.6z"/>
</g>
</svg>
