<?xml version="1.0" encoding="utf-8"?>
<!-- Generator: Adobe Illustrator 19.0.0, SVG Export Plug-In . SVG Version: 6.00 Build 0)  -->
<svg version="1.1" id="Capa_1" xmlns="http://www.w3.org/2000/svg" xmlns:xlink="http://www.w3.org/1999/xlink" x="0px" y="0px"
	 viewBox="0 0 876 349.6" style="enable-background:new 0 0 876 349.6;" xml:space="preserve">
<style type="text/css">
	.st0{fill:#170100;}
</style>
<path id="XMLID_77_" class="st0" d="M396.4,204.3c-1.1-6.8-1.6-13.2-1.6-19.2c0-3.3,0.1-6.4,0.2-9.3c0.1-2.9,0.4-5.4,0.7-7.7
	c0.3-2.3,0.5-4,0.7-5.3c0.2-1.3,0.5-2.8,0.8-4.5c0.4-1.7,0.5-2.6,0.5-2.8c0.1-0.9,0.2-1.6,0.2-2.2c0-2-0.6-3.4-1.7-4
	c-0.7-0.6-1.5-0.9-2.3-0.9c-1.2,0-2.2,1.1-3.2,3.4c-2.7,3.5-5.9,9.4-9.6,17.6c-3.7,8.2-7.1,16.4-10.1,24.6c-2.3-7-5.3-14.5-9-22.3
	c-3.8-7.8-7.4-13.6-10.8-17.3c-2-3.1-4.7-4.7-8-4.7c-2.8,0-5.7,2.1-8.8,6.3c-3.1,4.2-5.5,8.3-7.3,12.3c-1.8,4-2.7,6.4-2.7,7.1
	c0,1.2,0.1,1.9,0.4,1.9l2.8-5.7c1.8-3.8,4-7.6,6.6-11.3c2.6-3.8,4.7-5.7,6.5-5.7c5.2,0,7.7,7.7,7.7,23.2v1.2
	c0,5.4-1.1,11.3-3.2,17.9c-2.1,6.5-4.6,12.3-7.5,17.3c-2.8,5-5.6,9.2-8.4,12.5c-2.8,3.4-4.8,5.1-6.1,5.1c-0.9,0-1.3,0.5-1.3,1.6
	c0,0.8,0.7,1.6,2.1,2.5c1.4,0.9,3,1.3,4.9,1.3c1.2,0,3.3-1.8,6.1-5.4c2.8-3.6,5.8-8,8.8-13.3c3.1-5.3,5.7-11.6,8-18.7
	c2.3-7.2,3.4-13.9,3.4-20.1v-3.8v-2.4c3.6,7.8,7.1,17.9,10.4,30.5c0,0.9,0.4,1.8,1.3,2.6c0.8,0.8,1.5,1.2,2.1,1.2
	c0.8,0,1.6-0.2,2.5-0.7c0.9-0.5,1.4-1.3,1.6-2.3c0-2.2,1.7-8,5-17.5c3.3-9.5,6.7-16.7,9.9-21.6c-0.5,5.2-0.8,11.3-0.8,18.3
	c0,3.1,0.3,8,0.8,14.9c0.5,6.9,1.6,14.1,3.3,21.8c1.6,7.7,3.6,11.6,5.8,11.6c2.4,0,3.6-1.4,3.6-4.1c0-0.2-0.5-2.5-1.5-6.9
	C398.5,216.7,397.4,211.1,396.4,204.3z"/>
<path id="XMLID_91_" class="st0" d="M485.4,166c0-0.9-0.8-1.6-2.5-2.1c-1.7-0.5-3.1-0.8-4.1-0.8c-1,0-1.5,2.6-1.5,7.7
	c0,1.6,2.3,2.4,6.9,2.4c0.9,0,1.4-1.3,1.4-4c0-0.4,0-1-0.1-1.7C485.4,166.7,485.4,166.2,485.4,166z"/>
<path id="XMLID_111_" class="st0" d="M547.7,194.2c-0.6-0.2-0.9-0.1-0.9,0.4c0,0.4-0.8,2.2-2.3,5.6c-1.6,3.3-3.6,6.8-6,10.3
	c-2.4,3.5-4.5,5.3-6.3,5.3c-1.2,0-1.7-1.9-1.7-5.7c0-1.2,0.1-5,0.4-11.2c0.3-6.2,0.4-11.9,0.4-16.9c0-1.3-0.7-2.6-2.2-3.9
	c-1.5-1.3-2.7-1.9-3.8-1.9c-1.2,0-1.9,0.7-1.9,2c0,3.6,0,6.3-0.1,8c-1.5-1.7-3.5-3.2-5.9-4.5c-2.4-1.3-4.8-2-7.1-2h-0.9
	c-3.6,0.3-6.4,2.7-8.5,7.2c-2.1,4.5-3.1,9.7-3.1,15.5c0,0,0,0.1,0,0.1c-1.3,2.6-3,5.4-5.2,8.2c-2.4,3.2-4.7,5-6.9,5.2h-0.2
	c-1,0-1.5-1.7-1.5-5c0-1.1,0.2-4.7,0.4-10.7c0.3-6.1,0.4-11.6,0.4-16.6c0-1.3-0.7-2.6-2.1-3.8c-1.4-1.2-2.7-1.9-3.8-1.9
	c-1.2,0-1.9,0.7-1.9,2c0,4.1-0.1,9.3-0.3,15.5c-0.1,2.3-0.1,4.3-0.2,6.1l-0.5,0.8c-1.7,3.3-3.8,6.5-6.1,9.8c-2.3,3.3-4,4.9-5,4.9
	c-0.4,0-0.7-0.5-0.7-1.6c0-1.1,0.1-2.4,0.3-4c0.2-1.6,0.5-3.3,0.8-5c0.3-1.7,0.6-3.4,0.8-5c0.3-1.6,0.4-2.8,0.4-3.5
	c0-1.2-0.6-2.2-1.8-2.8c-1.2-0.7-2.5-1.1-3.9-1.2c-1.4-0.2-2.7-0.5-3.9-0.9c-1.2-0.5-1.7-1.2-1.7-2.1c0-1.4,0.2-2.9,0.7-4.5
	c0.4-1.6,0.7-2.6,0.7-3.1c0-0.8-0.6-1.6-1.7-2.5c-1.2-0.8-2.3-1.3-3.5-1.3c-0.7,0-1.5,1.4-2.4,4.2c-0.9,2.8-1.4,4.8-1.4,5.9
	c0,2,0.6,3.7,1.7,4.9c0.9,1,2,1.6,3,2c-0.4,0.9-0.9,2.1-1.7,3.7c-1.6,3.3-3.6,6.8-6,10.3c-2.4,3.5-4.5,5.3-6.3,5.3
	c-1.2,0-1.7-1.9-1.7-5.7c0-1.2,0.1-5,0.4-11.2c0.3-6.2,0.4-11.9,0.4-16.9c0-1.3-0.7-2.6-2.2-3.9c-1.5-1.3-2.7-1.9-3.8-1.9
	c-1.2,0-1.9,0.7-1.9,2c0,3.6,0,6.3-0.1,8c-1.5-1.7-3.5-3.2-5.9-4.5c-2.4-1.3-4.8-2-7.1-2h-0.9c-3.6,0.3-6.4,2.7-8.4,7.2
	c-2.1,4.5-3.1,9.7-3.1,15.5c0,5.4,1,10.1,2.9,14.1c1.9,3.9,4.6,5.9,8.1,5.9h0.8c2.1-0.2,4.4-1.7,6.8-4.7c2.4-3,4.5-6.3,6.3-10.1
	c0.1,5.1,0.7,8.8,1.8,11.2c1.1,2.4,3,3.6,5.7,3.6c1.7,0,3.4-0.9,5.3-2.7c1.9-1.8,3.6-3.9,5-6.4c1.5-2.5,2.8-5.1,4-7.6
	c1.2-2.6,2.2-4.8,2.8-6.5c0.3-0.7,0.4-1.2,0.6-1.7c0.9,0.2,1.8,0.5,2.6,0.8c1.2,0.4,1.8,1,1.8,1.6c0,0.4-0.2,1.6-0.8,3.6
	c-0.5,2-0.9,4.1-1.3,6.3c-0.3,2.1-0.5,4.3-0.5,6.6c0,2.3,0.6,4.1,1.7,5.5c1.2,1.4,2.9,2.1,5.1,2.1c1.5,0,3.1-0.9,4.8-2.7
	c1.7-1.8,3.3-3.8,4.6-6c1.3-2.2,2.7-4.8,4-7.7c0,0,0,0,0,0c0,0,0,0.1,0,0.1c0,5.2,0.5,9,1.5,11.4c1,2.4,3,3.5,5.9,3.5
	c2.7,0,5.5-2.1,8.6-6.2c2.3-3.1,4.2-6.2,5.7-9.1c0.4,3.5,1.3,6.6,2.6,9.3c1.9,3.9,4.6,5.9,8.1,5.9h0.8c2.1-0.2,4.4-1.7,6.8-4.7
	c2.4-3,4.5-6.3,6.3-10.1c0.1,5.1,0.7,8.8,1.8,11.2c1.1,2.4,3,3.6,5.7,3.6c1.7,0,3.4-0.9,5.3-2.7c1.9-1.8,3.6-3.9,5-6.4
	c1.5-2.5,2.8-5.1,4-7.6c1.2-2.6,2.2-4.8,2.8-6.5c0.7-1.8,1-2.7,1-2.9C548.6,195,548.3,194.4,547.7,194.2z M429.2,201.3
	c-1,3.1-2.8,6.4-5.2,9.9c-2.5,3.5-4.9,5.3-7.2,5.6h-0.2c-1.5,0-2.6-1.4-3.4-4.1c-0.8-2.7-1.2-6-1.2-10c0-4.9,0.6-9.3,1.7-13.2
	c1.2-4,2.8-6,4.8-6.2h0.7c2.3,0,4.5,0.7,6.6,2.2c2.1,1.5,3.3,2.9,3.8,4.1C429.4,194.1,429.3,198,429.2,201.3z M523,201.3
	c-1,3.1-2.8,6.4-5.2,9.9c-2.5,3.5-4.9,5.3-7.2,5.6h-0.2c-1.5,0-2.6-1.4-3.4-4.1c-0.8-2.7-1.2-6-1.2-10c0-4.9,0.6-9.3,1.7-13.2
	c1.2-4,2.8-6,4.8-6.2h0.6c2.3,0,4.5,0.7,6.6,2.2c2.1,1.5,3.3,2.9,3.8,4.1C523.1,194.1,523,198,523,201.3z"/>
<path id="XMLID_115_" class="st0" d="M773.1,192.9c-3.1,0-6.4,0.7-10,2.2c-1.1-4.1-2.9-7.4-5.4-10c-2.5-2.6-5.6-3.9-9.3-3.9
	c-3.1,0-5.8,1.7-8.1,5.2c-2.3,3.5-4.1,7.8-5.5,12.9c-0.2-7.4-0.7-12.3-1.4-14.8c-0.7-2.5-2-3.7-3.9-3.7c-0.6,0-1.1,0.2-1.6,0.5
	c-0.5,0.4-0.8,1-0.8,1.9c0,5.2,0,11.1-0.1,17.7l-0.6,1c-1.7,3.3-3.8,6.5-6.1,9.8c-2.3,3.3-4,4.9-5,4.9c-0.4,0-0.7-0.5-0.7-1.6
	c0-1.1,0.1-2.4,0.3-4c0.2-1.6,0.5-3.3,0.8-5c0.3-1.7,0.6-3.4,0.8-5c0.3-1.6,0.4-2.8,0.4-3.5c0-1.2-0.6-2.2-1.8-2.8
	c-1.2-0.7-2.5-1.1-3.9-1.2c-1.4-0.2-2.7-0.5-3.9-0.9c-1.2-0.5-1.7-1.2-1.7-2.1c0-1.4,0.2-2.9,0.7-4.5c0.4-1.6,0.7-2.6,0.7-3.1
	c0-0.8-0.6-1.6-1.7-2.5c-1.2-0.8-2.3-1.3-3.5-1.3c-0.7,0-1.5,1.4-2.4,4.2c-0.9,2.8-1.4,4.8-1.4,5.9c0,2,0.6,3.7,1.7,4.9
	c0.9,1,2,1.6,3,2c-0.4,0.9-0.9,2.1-1.7,3.7c-1.6,3.3-3.6,6.8-6,10.3c-2.4,3.5-4.5,5.3-6.3,5.3c-1.2,0-1.7-1.9-1.7-5.7
	c0-1.2,0.2-5,0.4-11.2c0.3-6.2,0.4-11.9,0.4-16.9c0-1.3-0.7-2.6-2.2-3.9c-1.5-1.3-2.7-1.9-3.8-1.9c-1.2,0-1.9,0.7-1.9,2
	c0,3.6,0,6.3-0.1,8c-1.5-1.7-3.5-3.2-5.9-4.5c-2.4-1.3-4.8-2-7.1-2h-0.9c-3.6,0.3-6.4,2.7-8.4,7.2c-2,4.4-3,9.4-3.1,15
	c-0.6,1.8-1.3,3.9-2.1,6.3c-2.4,6.8-4.5,10.2-6.3,10.2c-1.2,0-1.7-7.2-1.7-21.6c0-1.3,0-2.7,0.1-4c0-1.4,0.1-2.5,0.1-3.4
	c0-0.9,0-1.4,0-1.6c0-2-0.7-3.6-2.1-4.9c-1.4-1.3-2.9-2-4.7-2c-1.3,0-2.8,1-4.4,3.1c-1.6,2-3.2,4.6-4.7,7.7c-1.5,3.1-2.9,6.1-4.1,9
	c-1.2,2.9-2.2,5.7-3.1,8.3c0.2-21.4,0.2-33.3,0.2-36c0-5.4-0.1-9.4-0.2-12.1c-0.1-1.9-0.2-3.5-0.5-4.8c1.7,0,3.3,0,5,0
	c1.7,0,2.5-0.9,2.5-2.7c0-1.1-0.5-2.1-1.6-3.1c-1.1-0.9-2.4-1.4-3.8-1.4c-28.2,0-52.3,1.7-72.4,5c-1.9,0.2-2.8,1-2.8,2.5
	c0,1.2,0.5,2.3,1.5,3.1c1,0.8,2,1.3,3.1,1.3l3.7-0.6c2.5-0.4,6.7-1,12.4-1.6c5.7-0.6,12.2-1.1,19.4-1.5c-0.9,33.6-1.3,55.2-1.3,65
	c0,1.5,0.6,3,1.9,4.3c1.2,1.3,2.3,2,3.2,2c0.7,0,1.2-0.5,1.6-1.4c0.4-0.9,0.7-1.9,0.7-2.9c0-0.5,0.2-11.1,0.5-31.8
	c0.3-20.7,0.5-31.6,0.5-32.9c0-1-0.3-1.9-0.9-2.7c5.8-0.3,12.4-0.5,19.6-0.6c0,10.1-0.1,20.6-0.4,31.5c-0.3,11.9-0.4,18.7-0.4,20.5
	c0,6,0.4,9.9,1.2,11.5c0.8,1.7,2.5,2.5,5.2,2.5c1.4,0,2.1-0.9,2.1-2.8v-2.2c1.5-5.1,4.2-11.7,7.9-19.9c3.7-8.2,6.6-12.3,8.6-12.3
	c0.3,0,0.4,0.8,0.4,2.5c0,0.9-0.1,3.6-0.3,7.8c-0.2,4.3-0.3,7.8-0.3,10.5c0,12.9,2.2,19.4,6.5,19.4c2.7,0,5.7-4.1,9-12.4
	c0.7-1.7,1.3-3.2,1.8-4.6c0.5,3,1.2,5.7,2.4,8.1c1.9,3.9,4.6,5.9,8.1,5.9h0.8c2.1-0.2,4.4-1.7,6.7-4.7c2.4-3,4.5-6.3,6.3-10.1
	c0.2,5.1,0.7,8.8,1.8,11.2c1.1,2.4,3,3.6,5.7,3.6c1.7,0,3.4-0.9,5.3-2.7c1.9-1.8,3.6-3.9,5-6.4c1.5-2.5,2.8-5.1,4-7.6
	c1.2-2.6,2.2-4.8,2.8-6.5c0.3-0.7,0.4-1.2,0.6-1.7c0.9,0.2,1.8,0.5,2.6,0.8c1.2,0.4,1.8,1,1.8,1.6c0,0.4-0.2,1.6-0.8,3.6
	c-0.5,2-0.9,4.1-1.3,6.3c-0.3,2.1-0.5,4.3-0.5,6.6c0,2.3,0.6,4.1,1.7,5.5c1.2,1.4,2.9,2.1,5.1,2.1c1.5,0,3.1-0.9,4.8-2.7
	c1.7-1.8,3.3-3.8,4.6-6c1.3-2.2,2.7-4.8,4-7.7c0.1-0.2,0.1-0.3,0.2-0.5c0,3.6-0.1,7.3-0.1,11.3c-0.2,15.5-0.1,25.1,0.4,28.9
	c0.5,3.8,2.2,5.7,5.1,5.7c1.5,0,2.3-1.3,2.3-3.9c0-5.3,0-12,0.1-20.2c0-8.1,0.1-13.7,0.1-16.7c0.2-2.5,0.6-5.1,1.1-7.6
	c0.5-2.5,1.3-5.3,2.3-8.3c1-3,2.4-5.4,4.2-7.2c1.8-1.8,3.9-2.7,6.2-2.7c2,0,3.8,1.1,5.2,3.4c1.5,2.3,2.4,5.1,2.8,8.6
	c-4.6,2.6-8.6,5.7-11.9,9.4c-3.3,3.6-5,6.6-5,9c0,1.8,0.8,3.2,2.5,4.1c1.6,0.9,3.6,1.4,5.9,1.4c4,0,7.3-1.3,9.9-3.9
	c2.6-2.6,4.3-5.7,5.1-9.4c0.8-3.7,0.8-7.5,0.1-11.4c3.2-1.5,6.3-2.2,9.3-2.2c0.6,0,1-0.3,1.2-1C774.2,193.3,773.9,192.9,773.1,192.9
	z M679.5,201.3c-1,3.1-2.8,6.4-5.2,9.9c-2.5,3.5-4.9,5.3-7.2,5.6h-0.2c-1.5,0-2.6-1.4-3.4-4.1c-0.8-2.7-1.2-6-1.2-10
	c0-4.9,0.6-9.3,1.7-13.2c1.2-4,2.8-6,4.8-6.2h0.7c2.3,0,4.5,0.7,6.6,2.2c2.1,1.5,3.3,2.9,3.8,4.1C679.7,194.1,679.6,198,679.5,201.3
	z M754.7,212c-1.7,3.1-4.4,4.6-7.8,4.6c-0.9,0-1.4-0.4-1.4-1.1c0-1.5,1.1-3.8,3.4-6.7c2.3-2.9,5.1-5.6,8.3-8
	C757.3,205.2,756.5,209,754.7,212z"/>
<path id="XMLID_140_" class="st0" d="M110.4,154v75.5c-1.8,0.3-3.6,0.8-5.3,1.3c-1.7,0.6-3.4,1.2-5,1.9v3.7h26.7v-3.7
	c-1.6-0.7-3.2-1.3-4.8-1.8c-1.6-0.5-3.2-0.9-4.8-1.3v-57.4l-0.1-16.2h1.1l4.6,14.9l22.8,65.5h3.3l26.2-65.5l3-7.9v87.8v9.5v9.9v8.9
	v12c-3,0.6-6,1.6-8.9,2.9v3.9h34.7V294c-1.5-0.7-3.3-1.4-5.2-1.9c-1-0.3-2-0.5-3-0.8v-8.8c0.4,0.7,1.1,1.1,1.9,1.1h2.7
	c1.2,0,2.2-1,2.2-2.2v-4.2h9.2v-9.5h-8c0.8-1,1.2-2.1,1.2-3.3c0-1.5-0.6-2.8-1.7-3.9h8.5v-9.5h-9.2v-3.2c0-1.2-1-2.2-2.2-2.2h-2.7
	c-0.8,0-1.5,0.5-1.9,1.1v-92.8h8.2h19.5v75.9c-2.2,0.3-4.3,0.8-6.2,1.3c-1.9,0.5-3.8,1.1-5.7,1.8v3.7h35.9v-3.7
	c-1.8-0.8-3.6-1.4-5.6-1.8c-1.9-0.4-4-0.8-6.2-1.3v-75.9H255l6.7,18.2h3.4c0.3-1.8,0.4-3.8,0.6-5.9c0.1-2.2,0.3-4.4,0.4-6.6
	c0.1-2.3,0.2-4.4,0.3-6.6c0.1-2.1,0.1-4,0.1-5.7h-65.8h-4.2c0.8-1.1,1.2-2.5,1.2-3.9c0-2.4-1.2-4.5-3-5.7c6.8,3.2,11.2,6,16.9,7.6
	c17.3,4.7,32.8-8.3,32.6-25.4c-0.1-7.1-0.2-13.3,0-20.5c0.4-15.9-6.4-21.9-22.9-24.3c-2.3-16.4-9.9-24.5-23.5-23
	c-7.5,0.9-14.4,1.2-22,0.1c-13.3-2-20.2,5.5-23.9,23.1c-14.1,1.7-24.8,7.5-24.6,18.7c0.2,10.5-0.4,21,0,31.4
	c0.5,13.6,18.4,23.3,33,20c6.2-1.4,12-4.9,17.9-7.5c-1.7,1.3-2.9,3.3-2.9,5.6c0,2,0.9,3.9,2.3,5.1L155,205.2l-4.3,13.4h-0.1
	l-4.3-13.1l-20.1-58.3H99.9v3.7c1.7,0.7,3.4,1.3,5.2,1.9C106.8,153.2,108.6,153.7,110.4,154z M151.4,119.7c1.3,1.7,3.2,3.2,5.4,3.4
	c1.1,0.1,2.2-0.1,3.3-0.5c2.9-1.1,5.2-3.8,5.9-6.8c0.7-3.1-0.3-6.4-2.5-8.7c2.4-2.1,6.2-1.9,8.8-0.2c2.6,1.8,4.2,4.8,4.7,7.9
	c1.4,7.3-2.3,15.2-8.4,19.4c-6.2,4.2-16.5,4.9-23.5,2.3c-3.3-1.2-6.5-3.3-8-6.5c-1.9-4.1-0.6-8.9,1.6-12.8c1.8-3.1,4.3-6.5,3.3-10
	c-0.8-2.9-3.7-4.6-5.4-7c-5.8-8.2,4.9-16.8,13.2-16.9c4.6-0.1,9,1.6,13.2,3.1c-1.2-3.8-2.4-7.6-2.6-11.6c-0.2-4,0.6-8.1,3.1-11.2
	c2.5-3.1,6.8-4.8,10.6-3.5c4.7,1.6,7.8,7.5,12.8,7.2c4.4-0.3,6.9-5.2,10.9-7c3.6-1.6,8.2-0.3,10.9,2.6c2.8,2.9,3.9,7,3.8,11
	c-0.1,4-1.4,7.9-2.8,11.6c5.4-1.3,11.1-2.6,16.5-1.1c5.4,1.5,10.1,6.9,8.7,12.4c-1.2,4.8-6.6,8.1-6.3,13c0.3,4.5,5.3,7.3,6.8,11.5
	c1.1,2.9,0.4,6.3-1.4,8.9c-1.8,2.6-4.5,4.4-7.3,5.7c-6.1,2.7-13.4,2.8-19.4-0.1c-6-2.8-10.6-8.7-11.6-15.3c-0.6-4.3,0.4-9,3.7-11.8
	c3-2.6,7.5-3.2,11.4-2.4c-2.5,4.1-4.9,9.3-2.6,13.5c1.6,3,5.4,4.4,8.8,3.7c3.3-0.8,6-3.5,7.2-6.7c1.1-3.2,0.8-6.8-0.4-10
	c-2-5-6.4-9-11.6-10.5c-5.2-1.5-11-0.4-15.3,2.8c-6.2,4.6-8.7,12.6-10.8,20.1c-0.2-7.6-3.7-15.4-9.9-19.8
	c-6.3-4.4-15.3-4.9-21.5-0.3C148.7,104,146.8,113.7,151.4,119.7z"/>
</svg>
